<mxfile host="app.diagrams.net" agent="Mozilla/5.0 (Windows NT 10.0; Win64; x64) AppleWebKit/537.36 (KHTML, like Gecko) Chrome/139.0.0.0 Safari/537.36" version="28.1.1">
  <diagram name="Page-1" id="uP5faWFoQcoaiMHESeyv">
    <mxGraphModel dx="1188" dy="653" grid="1" gridSize="10" guides="1" tooltips="1" connect="1" arrows="1" fold="1" page="1" pageScale="1" pageWidth="850" pageHeight="1100" math="0" shadow="0">
      <root>
        <mxCell id="0" />
        <mxCell id="1" parent="0" />
        <mxCell id="PPPzDqr5zUtNHVE6Rq2s-1" value="" style="rounded=0;whiteSpace=wrap;html=1;" vertex="1" parent="1">
          <mxGeometry x="530" y="320" width="270" height="550" as="geometry" />
        </mxCell>
        <mxCell id="PPPzDqr5zUtNHVE6Rq2s-2" value="Người quản lý sân" style="shape=umlActor;verticalLabelPosition=bottom;verticalAlign=top;html=1;" vertex="1" parent="1">
          <mxGeometry x="350" y="580" width="30" height="60" as="geometry" />
        </mxCell>
        <mxCell id="PPPzDqr5zUtNHVE6Rq2s-3" value="Khách hàng" style="shape=umlActor;verticalLabelPosition=bottom;verticalAlign=top;html=1;" vertex="1" parent="1">
          <mxGeometry x="220" y="720" width="30" height="60" as="geometry" />
        </mxCell>
        <mxCell id="PPPzDqr5zUtNHVE6Rq2s-5" value="Quản lý sân bóng" style="text;html=1;align=center;verticalAlign=middle;resizable=0;points=[];autosize=1;strokeColor=none;fillColor=none;" vertex="1" parent="1">
          <mxGeometry x="605" y="320" width="120" height="30" as="geometry" />
        </mxCell>
        <mxCell id="PPPzDqr5zUtNHVE6Rq2s-6" value="Thêm sân mới&amp;nbsp;" style="ellipse;whiteSpace=wrap;html=1;" vertex="1" parent="1">
          <mxGeometry x="630" y="580" width="140" height="70" as="geometry" />
        </mxCell>
        <mxCell id="PPPzDqr5zUtNHVE6Rq2s-7" value="Cập nhật thông tin sân" style="ellipse;whiteSpace=wrap;html=1;" vertex="1" parent="1">
          <mxGeometry x="630" y="660" width="140" height="70" as="geometry" />
        </mxCell>
        <mxCell id="PPPzDqr5zUtNHVE6Rq2s-8" value="Xem tình trạng sân" style="ellipse;whiteSpace=wrap;html=1;" vertex="1" parent="1">
          <mxGeometry x="630" y="750" width="140" height="70" as="geometry" />
        </mxCell>
      </root>
    </mxGraphModel>
  </diagram>
</mxfile>
